<svg width="24" height="24" viewBox="0 0 24 24" fill="none" xmlns="http://www.w3.org/2000/svg">
<path d="M4.5 11C3.67 11 3 11.67 3 12.5C3 13.33 3.67 14 4.5 14C5.33 14 6 13.33 6 12.5C6 11.67 5.33 11 4.5 11ZM4.5 5C3.67 5 3 5.67 3 6.5C3 7.33 3.67 8 4.5 8C5.33 8 6 7.33 6 6.5C6 5.67 5.33 5 4.5 5ZM4.5 17C3.67 17 3 17.68 3 18.5C3 19.32 3.68 20 4.5 20C5.32 20 6 19.32 6 18.5C6 17.68 5.33 17 4.5 17ZM8.5 19.5H20.5C21.05 19.5 21.5 19.05 21.5 18.5C21.5 17.95 21.05 17.5 20.5 17.5H8.5C7.95 17.5 7.5 17.95 7.5 18.5C7.5 19.05 7.95 19.5 8.5 19.5ZM8.5 13.5H20.5C21.05 13.5 21.5 13.05 21.5 12.5C21.5 11.95 21.05 11.5 20.5 11.5H8.5C7.95 11.5 7.5 11.95 7.5 12.5C7.5 13.05 7.95 13.5 8.5 13.5ZM7.5 6.5C7.5 7.05 7.95 7.5 8.5 7.5H20.5C21.05 7.5 21.5 7.05 21.5 6.5C21.5 5.95 21.05 5.5 20.5 5.5H8.5C7.95 5.5 7.5 5.95 7.5 6.5Z" fill="#C7C7C7"/>
</svg>
