<svg width="24" height="24" viewBox="0 0 24 24" fill="none" xmlns="http://www.w3.org/2000/svg">
  <path
    d="M4 19.5H16C16.55 19.5 17 19.05 17 18.5C17 17.95 16.55 17.5 16 17.5H4C3.45 17.5 3 17.95 3 18.5C3 19.05 3.45 19.5 4 19.5ZM4 13.5H20.5C21.05 13.5 21.5 13.05 21.5 12.5C21.5 11.95 21.05 11.5 20.5 11.5H4C3.45 11.5 3 11.95 3 12.5C3 13.05 3.45 13.5 4 13.5Z" />
  <path
    d="M20.5 7.5H15C14.45 7.5 14 7.05 14 6.5C14 5.95 14.45 5.5 15 5.5H20.5C21.05 5.5 21.5 5.95 21.5 6.5C21.5 7.05 21.05 7.5 20.5 7.5Z" />
  <path
    d="M7.81402 4.086V9H6.61702V6.977H4.75502V9H3.55802V4.086H4.75502V6.011H6.61702V4.086H7.81402ZM8.43314 5.003V3.89H10.3721V9H9.12614V5.003H8.43314Z" />
</svg>