<svg width="24" height="24" viewBox="0 0 24 24" fill="none" xmlns="http://www.w3.org/2000/svg">
<path d="M8.49999 19.5H20.5C21.05 19.5 21.5 19.05 21.5 18.5C21.5 17.95 21.05 17.5 20.5 17.5H8.49999C7.94999 17.5 7.49998 17.95 7.49998 18.5C7.49998 19.05 7.94999 19.5 8.49999 19.5ZM8.49999 13.5H20.5C21.05 13.5 21.5 13.05 21.5 12.5C21.5 11.95 21.05 11.5 20.5 11.5H8.49999C7.94999 11.5 7.49998 11.95 7.49998 12.5C7.49998 13.05 7.94999 13.5 8.49999 13.5ZM7.49998 6.5C7.49998 7.05 7.94999 7.5 8.49999 7.5H20.5C21.05 7.5 21.5 7.05 21.5 6.5C21.5 5.95 21.05 5.5 20.5 5.5H8.49999C7.94999 5.5 7.49998 5.95 7.49998 6.5Z" fill="#C7C7C7"/>
<path d="M2.74133 17.88C2.75466 17.5233 2.87133 17.2483 3.09133 17.055C3.31133 16.8617 3.60966 16.765 3.98633 16.765C4.23633 16.765 4.44966 16.8083 4.62633 16.895C4.80633 16.9817 4.94133 17.1 5.03133 17.25C5.12466 17.4 5.17133 17.5683 5.17133 17.755C5.17133 17.975 5.11633 18.155 5.00633 18.295C4.89633 18.4317 4.76799 18.525 4.62133 18.575V18.595C4.81133 18.6583 4.96133 18.7633 5.07133 18.91C5.18133 19.0567 5.23633 19.245 5.23633 19.475C5.23633 19.6817 5.18799 19.865 5.09133 20.025C4.99799 20.1817 4.85966 20.305 4.67633 20.395C4.49633 20.485 4.28133 20.53 4.03133 20.53C3.63133 20.53 3.31133 20.4317 3.07133 20.235C2.83466 20.0383 2.70966 19.7417 2.69633 19.345H3.52633C3.52966 19.4917 3.57133 19.6083 3.65133 19.695C3.73133 19.7783 3.84799 19.82 4.00133 19.82C4.13133 19.82 4.23133 19.7833 4.30133 19.71C4.37466 19.6333 4.41133 19.5333 4.41133 19.41C4.41133 19.25 4.35966 19.135 4.25633 19.065C4.15633 18.9917 3.99466 18.955 3.77133 18.955H3.61133V18.26H3.77133C3.94133 18.26 4.07799 18.2317 4.18133 18.175C4.28799 18.115 4.34133 18.01 4.34133 17.86C4.34133 17.74 4.30799 17.6467 4.24133 17.58C4.17466 17.5133 4.08299 17.48 3.96633 17.48C3.83966 17.48 3.74466 17.5183 3.68133 17.595C3.62133 17.6717 3.58633 17.7667 3.57633 17.88H2.74133Z" fill="#C7C7C7"/>
<path d="M2.76678 13.815C2.88011 13.725 2.93178 13.6833 2.92178 13.69C3.24844 13.42 3.50511 13.1983 3.69178 13.025C3.88178 12.8517 4.04178 12.67 4.17178 12.48C4.30178 12.29 4.36678 12.105 4.36678 11.925C4.36678 11.7883 4.33511 11.6817 4.27178 11.605C4.20844 11.5283 4.11344 11.49 3.98678 11.49C3.86011 11.49 3.76011 11.5383 3.68678 11.635C3.61678 11.7283 3.58178 11.8617 3.58178 12.035H2.75678C2.76344 11.7517 2.82344 11.515 2.93678 11.325C3.05344 11.135 3.20511 10.995 3.39178 10.905C3.58178 10.815 3.79178 10.77 4.02178 10.77C4.41844 10.77 4.71678 10.8717 4.91678 11.075C5.12011 11.2783 5.22178 11.5433 5.22178 11.87C5.22178 12.2267 5.10011 12.5583 4.85678 12.865C4.61344 13.1683 4.30344 13.465 3.92678 13.755H5.27678V14.45H2.76678V13.815Z" fill="#C7C7C7"/>
<path d="M3.19506 5.645V4.85H4.58006V8.5H3.69006V5.645H3.19506Z" fill="#C7C7C7"/>
</svg>
