<svg width="24" height="24" viewBox="0 0 24 24" fill="none" xmlns="http://www.w3.org/2000/svg">
  <path
    d="M8 19.5L16 19.5C16.55 19.5 17 19.05 17 18.5C17 17.95 16.55 17.5 16 17.5L8 17.5C7.45 17.5 7 17.95 7 18.5C7 19.05 7.45 19.5 8 19.5ZM8 13.5H20.5C21.05 13.5 21.5 13.05 21.5 12.5C21.5 11.95 21.05 11.5 20.5 11.5H8C7.45 11.5 7 11.95 7 12.5C7 13.05 7.45 13.5 8 13.5ZM7 6.5C7 7.05 7.45 7.5 8 7.5H20.5C21.05 7.5 21.5 7.05 21.5 6.5C21.5 5.95 21.05 5.5 20.5 5.5H8C7.45 5.5 7 5.95 7 6.5Z" />
  <path d="M5 20C5 20.55 4.55 21 4 21C3.45 21 3 20.55 3 20V5C3 4.45 3.45 4 4 4C4.55 4 5 4.45 5 5V20Z" />
</svg>