<svg width="24" height="24" viewBox="0 0 24 24" fill="none" xmlns="http://www.w3.org/2000/svg">
  <path
    d="M4 19.5H16C16.55 19.5 17 19.05 17 18.5C17 17.95 16.55 17.5 16 17.5H4C3.45 17.5 3 17.95 3 18.5C3 19.05 3.45 19.5 4 19.5ZM4 13.5H20.5C21.05 13.5 21.5 13.05 21.5 12.5C21.5 11.95 21.05 11.5 20.5 11.5H4C3.45 11.5 3 11.95 3 12.5C3 13.05 3.45 13.5 4 13.5Z" />
  <path
    d="M20.5 7.5H15C14.45 7.5 14 7.05 14 6.5C14 5.95 14.45 5.5 15 5.5H20.5C21.05 5.5 21.5 5.95 21.5 6.5C21.5 7.05 21.05 7.5 20.5 7.5Z" />
  <path
    d="M8.13043 4.086V9H6.93343V6.977H5.07143V9H3.87443V4.086H5.07143V6.011H6.93343V4.086H8.13043ZM8.83355 8.041C8.99221 7.915 9.06455 7.85667 9.05055 7.866C9.50788 7.488 9.86721 7.17767 10.1285 6.935C10.3945 6.69233 10.6185 6.438 10.8005 6.172C10.9825 5.906 11.0735 5.647 11.0735 5.395C11.0735 5.20367 11.0292 5.05433 10.9405 4.947C10.8519 4.83967 10.7189 4.786 10.5415 4.786C10.3642 4.786 10.2242 4.85367 10.1215 4.989C10.0235 5.11967 9.97455 5.30633 9.97455 5.549H8.81955C8.82888 5.15233 8.91288 4.821 9.07155 4.555C9.23488 4.289 9.44721 4.093 9.70855 3.967C9.97455 3.841 10.2685 3.778 10.5905 3.778C11.1459 3.778 11.5635 3.92033 11.8435 4.205C12.1282 4.48967 12.2705 4.86067 12.2705 5.318C12.2705 5.81733 12.1002 6.28167 11.7595 6.711C11.4189 7.13567 10.9849 7.551 10.4575 7.957H12.3475V8.93H8.83355V8.041Z" />
</svg>