<svg width="24" height="24" viewBox="0 0 24 24" fill="none" xmlns="http://www.w3.org/2000/svg">
  <path
    d="M4 19.5H16C16.55 19.5 17 19.05 17 18.5C17 17.95 16.55 17.5 16 17.5H4C3.45 17.5 3 17.95 3 18.5C3 19.05 3.45 19.5 4 19.5ZM4 13.5H20.5C21.05 13.5 21.5 13.05 21.5 12.5C21.5 11.95 21.05 11.5 20.5 11.5H4C3.45 11.5 3 11.95 3 12.5C3 13.05 3.45 13.5 4 13.5Z" />
  <path
    d="M20.5 7.5H15C14.45 7.5 14 7.05 14 6.5C14 5.95 14.45 5.5 15 5.5H20.5C21.05 5.5 21.5 5.95 21.5 6.5C21.5 7.05 21.05 7.5 20.5 7.5Z" />
  <path
    d="M8.0108 4.086V9H6.8138V6.977H4.9518V9H3.7548V4.086H4.9518V6.011H6.8138V4.086H8.0108ZM8.79792 5.332C8.81658 4.83267 8.97992 4.44767 9.28792 4.177C9.59592 3.90633 10.0136 3.771 10.5409 3.771C10.8909 3.771 11.1896 3.83167 11.4369 3.953C11.6889 4.07433 11.8779 4.24 12.0039 4.45C12.1346 4.66 12.1999 4.89567 12.1999 5.157C12.1999 5.465 12.1229 5.717 11.9689 5.913C11.8149 6.10433 11.6353 6.235 11.4299 6.305V6.333C11.6959 6.42167 11.9059 6.56867 12.0599 6.774C12.2139 6.97933 12.2909 7.243 12.2909 7.565C12.2909 7.85433 12.2233 8.111 12.0879 8.335C11.9573 8.55433 11.7636 8.727 11.5069 8.853C11.2549 8.979 10.9539 9.042 10.6039 9.042C10.0439 9.042 9.59592 8.90433 9.25992 8.629C8.92858 8.35367 8.75358 7.93833 8.73492 7.383H9.89692C9.90158 7.58833 9.95992 7.75167 10.0719 7.873C10.1839 7.98967 10.3473 8.048 10.5619 8.048C10.7439 8.048 10.8839 7.99667 10.9819 7.894C11.0846 7.78667 11.1359 7.64667 11.1359 7.474C11.1359 7.25 11.0636 7.089 10.9189 6.991C10.7789 6.88833 10.5526 6.837 10.2399 6.837H10.0159V5.864H10.2399C10.4779 5.864 10.6693 5.82433 10.8139 5.745C10.9633 5.661 11.0379 5.514 11.0379 5.304C11.0379 5.136 10.9913 5.00533 10.8979 4.912C10.8046 4.81867 10.6763 4.772 10.5129 4.772C10.3356 4.772 10.2026 4.82567 10.1139 4.933C10.0299 5.04033 9.98092 5.17333 9.96692 5.332H8.79792Z" />
</svg>