<svg width="24" height="24" viewBox="0 0 24 24" fill="none" xmlns="http://www.w3.org/2000/svg">
<path d="M9 19.5H20.5C21.05 19.5 21.5 19.05 21.5 18.5C21.5 17.95 21.05 17.5 20.5 17.5H9C8.45 17.5 8 17.95 8 18.5C8 19.05 8.45 19.5 9 19.5ZM9.24558 13.5L20.5 13.5C21.05 13.5 21.5 13.05 21.5 12.5C21.5 11.95 21.05 11.5 20.5 11.5L9.24558 11.5C8.69558 11.5 8.24558 11.95 8.24558 12.5C8.24558 13.05 8.69558 13.5 9.24558 13.5ZM8.50001 6.49999C8.50001 7.05 8.95 7.5 9.5 7.5H20.5C21.05 7.5 21.5 7.05 21.5 6.49999C21.5 5.94999 21.05 5.49999 20.5 5.49999H9.5C8.95 5.49999 8.50001 5.94999 8.50001 6.49999Z" fill="#C7C7C7"/>
<path d="M4.15891 6.34108L5.44945 4.49799C5.66454 4.1908 6.18681 4.09871 6.494 4.31381C6.80119 4.5289 6.89327 5.05117 6.67818 5.35835L4.95745 7.81581C4.74236 8.12299 4.22009 8.21508 3.91291 7.99999L2.68418 7.13963C2.377 6.92453 2.28491 6.40226 2.5 6.09508C2.7151 5.78791 3.23736 5.69581 3.54455 5.9109L4.15891 6.34108Z" fill="#C7C7C7"/>
<path d="M4.15891 12.3411L5.44945 10.498C5.66454 10.1908 6.18681 10.0987 6.494 10.3138C6.80119 10.5289 6.89327 11.0512 6.67818 11.3584L4.95745 13.8158C4.74236 14.123 4.22009 14.2151 3.91291 14L2.68418 13.1396C2.377 12.9245 2.28491 12.4023 2.5 12.0951C2.7151 11.7879 3.23736 11.6958 3.54455 11.9109L4.15891 12.3411Z" fill="#C7C7C7"/>
<path d="M4.15891 18.3411L5.44945 16.498C5.66454 16.1908 6.18681 16.0987 6.494 16.3138C6.80118 16.5289 6.89327 17.0512 6.67818 17.3584L4.95745 19.8158C4.74236 20.123 4.22009 20.2151 3.9129 20L2.68418 19.1396C2.377 18.9245 2.2849 18.4023 2.5 18.0951C2.71509 17.7879 3.23736 17.6958 3.54454 17.9109L4.15891 18.3411Z" fill="#C7C7C7"/>
</svg>
