<svg width="24" viewBox="0 0 20 20" fill="none" xmlns="http://www.w3.org/2000/svg">
  <path
    d="M7.5 15C7.04167 15 6.64931 14.8368 6.32292 14.5104C5.99653 14.184 5.83333 13.7917 5.83333 13.3333V3.33333C5.83333 2.875 5.99653 2.48264 6.32292 2.15625C6.64931 1.82986 7.04167 1.66666 7.5 1.66666H15C15.4583 1.66666 15.8507 1.82986 16.1771 2.15625C16.5035 2.48264 16.6667 2.875 16.6667 3.33333V13.3333C16.6667 13.7917 16.5035 14.184 16.1771 14.5104C15.8507 14.8368 15.4583 15 15 15H7.5ZM7.5 13.3333H11.25H15V8.33333V3.33333H11.25H7.5V8.33333V13.3333ZM4.16667 18.3333C3.70833 18.3333 3.31597 18.1701 2.98958 17.8437C2.66319 17.5174 2.5 17.125 2.5 16.6667V5.83333C2.5 5.59722 2.57986 5.3993 2.73958 5.23958C2.89931 5.07986 3.09722 5 3.33333 5C3.56944 5 3.76736 5.07986 3.92708 5.23958C4.08681 5.3993 4.16667 5.59722 4.16667 5.83333V16.6667H12.5C12.7361 16.6667 12.934 16.7465 13.0938 16.9062C13.2535 17.066 13.3333 17.2639 13.3333 17.5C13.3333 17.7361 13.2535 17.934 13.0938 18.0937C12.934 18.2535 12.7361 18.3333 12.5 18.3333H4.16667Z"
    fill="currentColor" />
  <path
    d="M10.5 7.55H9C8.2 7.55 8.2 8.35 8.2 8.35C8.2 9.15 9 9.15 9 9.15H10.5V10.6514C10.5 11.4514 11.3 11.4514 11.3 11.4514C11.3 11.4514 12.1 11.4514 12.1 10.6514V9.15H13.6707C13.6707 9.15 14.4707 9.15 14.4707 8.35C14.4707 8.35 14.4707 7.55 13.6707 7.55H12.1V6.03014C12.1 5.23014 11.3 5.23014 11.3 5.23014C10.5 5.23014 10.5 6.03014 10.5 6.03014L10.5 7.55Z"
    fill="currentColor" />
</svg>