<svg width="24" height="24" viewBox="0 0 24 24" fill="none" xmlns="http://www.w3.org/2000/svg">
  <path
    d="M15.0186 12.24C15.6692 12.3787 16.1919 12.704 16.5866 13.216C16.9812 13.7173 17.1786 14.2933 17.1786 14.944C17.1786 15.8827 16.8479 16.6293 16.1866 17.184C15.5359 17.728 14.6239 18 13.4506 18H8.21856V6.768H13.2746C14.4159 6.768 15.3066 7.02933 15.9466 7.552C16.5972 8.07467 16.9226 8.784 16.9226 9.68C16.9226 10.3413 16.7466 10.8907 16.3946 11.328C16.0532 11.7653 15.5946 12.0693 15.0186 12.24ZM10.9546 11.312H12.7466C13.1946 11.312 13.5359 11.216 13.7706 11.024C14.0159 10.8213 14.1386 10.528 14.1386 10.144C14.1386 9.76 14.0159 9.46667 13.7706 9.264C13.5359 9.06133 13.1946 8.96 12.7466 8.96H10.9546V11.312ZM12.9706 15.792C13.4292 15.792 13.7812 15.6907 14.0266 15.488C14.2826 15.2747 14.4106 14.9707 14.4106 14.576C14.4106 14.1813 14.2772 13.872 14.0106 13.648C13.7546 13.424 13.3972 13.312 12.9386 13.312H10.9546V15.792H12.9706Z"
    fill="currentColor" />
</svg>