<svg width="24" height="24" viewBox="0 0 24 24" fill="none" xmlns="http://www.w3.org/2000/svg">
  <path
    d="M13.4466 8.016C13.1586 8.016 12.924 7.92533 12.7426 7.744C12.5613 7.56267 12.4706 7.33333 12.4706 7.056C12.4706 6.68267 12.6093 6.36267 12.8866 6.096C13.1746 5.81867 13.5 5.68 13.8626 5.68C14.1506 5.68 14.38 5.77067 14.5506 5.952C14.732 6.13333 14.8226 6.36267 14.8226 6.64C14.8226 7.01333 14.684 7.33867 14.4066 7.616C14.1293 7.88267 13.8093 8.016 13.4466 8.016ZM14.1346 9.184L12.5826 18H10.7586L12.3106 9.184H14.1346Z"
    fill="currentColor" />
</svg>