<svg width="24" height="24" viewBox="0 0 24 24" fill="none" xmlns="http://www.w3.org/2000/svg">
  <path
    d="M13.7049 5.664C14.9209 5.664 15.9715 5.888 16.8569 6.336C17.7422 6.784 18.4142 7.41333 18.8729 8.224C19.3422 9.024 19.5769 9.95733 19.5769 11.024C19.5769 11.8773 19.4275 12.6933 19.1289 13.472C18.8409 14.2507 18.4195 14.8853 17.8649 15.376C17.3209 15.8667 16.6755 16.112 15.9289 16.112C15.3849 16.112 14.9582 15.9947 14.6489 15.76C14.3395 15.5147 14.1475 15.1733 14.0729 14.736C13.7422 15.1627 13.3262 15.4987 12.8249 15.744C12.3235 15.9893 11.8009 16.112 11.2569 16.112C10.4355 16.112 9.79021 15.8667 9.32088 15.376C8.86221 14.8747 8.63288 14.1973 8.63288 13.344C8.63288 12.5333 8.79821 11.776 9.12888 11.072C9.47021 10.368 9.94488 9.808 10.5529 9.392C11.1609 8.96533 11.8435 8.752 12.6009 8.752C13.5289 8.752 14.1795 9.06667 14.5529 9.696L14.6969 8.896H16.2809L15.4809 13.472C15.4489 13.696 15.4329 13.8933 15.4329 14.064C15.4329 14.3413 15.4862 14.5493 15.5929 14.688C15.7102 14.8267 15.9129 14.896 16.2009 14.896C16.6062 14.896 16.9529 14.6987 17.2409 14.304C17.5289 13.8987 17.7422 13.4027 17.8809 12.816C18.0302 12.2293 18.1049 11.6587 18.1049 11.104C18.1049 9.74933 17.7102 8.71467 16.9209 8C16.1315 7.28533 14.9849 6.928 13.4809 6.928C12.2222 6.928 11.0915 7.22667 10.0889 7.824C9.09688 8.42133 8.31821 9.24267 7.75288 10.288C7.18754 11.3333 6.90488 12.496 6.90488 13.776C6.90488 15.1413 7.31021 16.1813 8.12088 16.896C8.93154 17.6107 10.0889 17.968 11.5929 17.968C12.6062 17.968 13.4915 17.7813 14.2489 17.408L14.4889 18.624C13.5182 19.04 12.4302 19.248 11.2249 19.248C10.0622 19.248 9.04354 19.0293 8.16888 18.592C7.29421 18.1547 6.61688 17.5307 6.13688 16.72C5.65688 15.92 5.41688 14.9867 5.41688 13.92C5.41688 12.3947 5.76888 11.0027 6.47288 9.744C7.18754 8.48533 8.17421 7.49333 9.43288 6.768C10.6915 6.032 12.1155 5.664 13.7049 5.664ZM11.8169 14.704C12.2649 14.704 12.6702 14.576 13.0329 14.32C13.4062 14.0533 13.6995 13.7067 13.9129 13.28C14.1262 12.8427 14.2329 12.3787 14.2329 11.888C14.2329 11.376 14.0889 10.96 13.8009 10.64C13.5235 10.3093 13.1289 10.144 12.6169 10.144C12.1582 10.144 11.7529 10.288 11.4009 10.576C11.0595 10.8533 10.7929 11.216 10.6009 11.664C10.4195 12.112 10.3289 12.5813 10.3289 13.072C10.3289 13.5733 10.4515 13.9733 10.6969 14.272C10.9422 14.56 11.3155 14.704 11.8169 14.704Z"
    fill="currentColor" />
</svg>