<svg width="24" height="24" viewBox="0 0 24 24" fill="none" xmlns="http://www.w3.org/2000/svg">
  <path
    d="M12.0359 18.112C11.2892 18.112 10.6172 17.984 10.0199 17.728C9.42254 17.4613 8.95321 17.088 8.61188 16.608C8.27054 16.128 8.09988 15.568 8.09988 14.928H10.0519C10.0945 15.408 10.2812 15.8027 10.6119 16.112C10.9532 16.4213 11.4279 16.576 12.0359 16.576C12.6652 16.576 13.1559 16.4267 13.5079 16.128C13.8599 15.8187 14.0359 15.424 14.0359 14.944C14.0359 14.5707 13.9239 14.2667 13.6999 14.032C13.4865 13.7973 13.2145 13.616 12.8839 13.488C12.5639 13.36 12.1159 13.2213 11.5399 13.072C10.8145 12.88 10.2225 12.688 9.76388 12.496C9.31588 12.2933 8.93188 11.984 8.61188 11.568C8.29188 11.152 8.13188 10.5973 8.13188 9.904C8.13188 9.264 8.29188 8.704 8.61188 8.224C8.93188 7.744 9.37988 7.376 9.95588 7.12C10.5319 6.864 11.1985 6.736 11.9559 6.736C13.0332 6.736 13.9132 7.008 14.5959 7.552C15.2892 8.08533 15.6732 8.82133 15.7479 9.76H13.7319C13.6999 9.35467 13.5079 9.008 13.1559 8.72C12.8039 8.432 12.3399 8.288 11.7639 8.288C11.2412 8.288 10.8145 8.42133 10.4839 8.688C10.1532 8.95467 9.98788 9.33867 9.98788 9.84C9.98788 10.1813 10.0892 10.464 10.2919 10.688C10.5052 10.9013 10.7719 11.072 11.0919 11.2C11.4119 11.328 11.8492 11.4667 12.4039 11.616C13.1399 11.8187 13.7372 12.0213 14.1959 12.224C14.6652 12.4267 15.0599 12.7413 15.3799 13.168C15.7105 13.584 15.8759 14.144 15.8759 14.848C15.8759 15.4133 15.7212 15.9467 15.4119 16.448C15.1132 16.9493 14.6705 17.3547 14.0839 17.664C13.5079 17.9627 12.8252 18.112 12.0359 18.112Z"
    fill="currentColor" />
  <path d="M7.17188 12.72H16.8359V13.52H7.17188V12.72Z" fill="currentColor" />
</svg>